<?xml version="1.0" standalone="no"?>
<!DOCTYPE svg PUBLIC "-//W3C//DTD SVG 20010904//EN"
 "http://www.w3.org/TR/2001/REC-SVG-20010904/DTD/svg10.dtd">
<svg version="1.0" xmlns="http://www.w3.org/2000/svg"
 width="512.000000pt" height="512.000000pt" viewBox="0 0 512.000000 512.000000"
 preserveAspectRatio="xMidYMid meet">

<g transform="translate(0.000000,512.000000) scale(0.100000,-0.100000)"
fill="#000000" stroke="none">
<path d="M3313 4695 c-66 -18 -135 -53 -245 -124 -94 -60 -119 -94 -101 -134
20 -42 1185 -1852 1208 -1875 24 -25 55 -31 93 -18 l22 7 0 -773 0 -773 -266
-230 c-147 -126 -270 -240 -275 -254 -12 -29 -4 -56 24 -81 45 -42 62 -32 297
170 l220 190 0 -165 c0 -163 0 -166 25 -190 30 -30 64 -32 99 -4 l26 20 0 165
c0 90 3 164 8 164 4 0 103 -83 221 -185 233 -201 248 -209 296 -160 32 31 32
66 1 102 -13 15 -137 125 -274 243 l-251 215 0 822 -1 822 73 73 c112 113 167
246 167 407 0 130 -32 217 -141 387 -33 50 -59 93 -59 96 0 3 100 70 223 148
122 79 237 157 255 174 55 51 76 101 77 181 0 84 -9 103 -133 290 -81 120 -91
132 -145 159 -66 34 -148 39 -207 14 -20 -8 -138 -81 -264 -162 -126 -81 -230
-146 -231 -144 -1 2 -36 55 -77 118 -115 178 -223 264 -383 305 -73 19 -212
18 -282 0z m240 -150 c32 -8 76 -24 99 -36 91 -46 128 -96 484 -652 191 -297
355 -561 365 -586 74 -196 -15 -419 -210 -529 l-41 -22 -24 37 c-13 21 -261
407 -551 858 l-526 820 28 22 c15 12 54 36 88 53 98 49 190 61 288 35z m1132
-117 c16 -7 57 -61 110 -143 70 -109 85 -138 85 -171 0 -54 -11 -63 -270 -229
l-214 -137 -22 27 c-12 15 -31 44 -43 65 l-21 38 135 87 c140 90 165 113 165
153 0 31 -43 72 -75 72 -16 0 -81 -36 -167 -91 -77 -49 -144 -87 -148 -82 -27
30 -78 119 -72 124 32 31 470 299 488 299 13 0 35 -5 49 -12z"/>
<path d="M365 4504 c-121 -107 -235 -210 -252 -229 l-33 -35 0 -685 c0 -757
-3 -725 63 -765 29 -18 51 -20 230 -20 l197 0 0 -140 c0 -158 8 -187 63 -220
26 -16 50 -20 125 -20 l92 0 0 -702 -1 -703 -300 -220 c-166 -121 -307 -229
-315 -240 -33 -46 3 -115 61 -115 27 0 78 33 292 190 l258 190 5 -169 c4 -148
7 -172 24 -190 24 -27 76 -28 107 -2 23 18 24 25 29 190 l5 170 257 -189 c261
-193 282 -205 329 -179 29 15 42 57 29 89 -8 18 -112 102 -316 251 l-304 224
0 703 0 702 90 0 c101 0 135 12 166 57 16 24 20 51 22 176 l4 147 194 0 c213
0 235 5 270 57 18 27 19 59 22 708 2 473 -1 688 -8 706 -10 23 -94 101 -412
382 l-88 77 -343 0 -342 0 -220 -196z m985 -81 l143 -128 -281 -3 c-155 -1
-409 -1 -564 0 l-282 3 140 127 139 127 280 0 281 1 144 -127z m270 -893 l0
-610 -692 2 -693 3 -3 595 c-1 327 0 601 3 608 3 9 152 12 695 12 l690 0 0
-610z m-490 -875 l0 -115 -200 0 -200 0 0 115 0 115 200 0 200 0 0 -115z"/>
<path d="M821 3944 c-212 -57 -350 -268 -314 -480 16 -90 56 -169 122 -235
247 -246 666 -107 722 240 35 217 -123 440 -340 481 -71 13 -125 12 -190 -6z
m227 -170 c100 -50 158 -152 150 -262 -12 -155 -138 -262 -292 -250 -278 23
-341 402 -86 517 67 31 161 28 228 -5z"/>
<path d="M1645 2426 c-16 -7 -41 -26 -55 -41 -25 -26 -25 -29 -28 -225 -4
-222 1 -244 61 -280 30 -19 52 -20 309 -20 l277 0 3 -562 3 -563 23 -47 c30
-60 90 -120 150 -150 69 -34 206 -33 276 1 61 30 117 87 148 149 l23 47 3 563
3 562 277 0 c388 0 375 -10 370 300 -3 196 -3 199 -28 226 -52 56 -19 54 -937
54 -684 -1 -854 -3 -878 -14z m1695 -281 l0 -135 -815 0 -815 0 0 135 0 135
815 0 815 0 0 -135z m-660 -832 c0 -520 -1 -549 -19 -577 -32 -48 -69 -66
-136 -66 -67 0 -104 18 -136 66 -18 28 -19 57 -19 577 l0 547 155 0 155 0 0
-547z"/>
</g>
</svg>
