<?xml version="1.0" standalone="no"?>
<!DOCTYPE svg PUBLIC "-//W3C//DTD SVG 20010904//EN"
 "http://www.w3.org/TR/2001/REC-SVG-20010904/DTD/svg10.dtd">
<svg version="1.0" xmlns="http://www.w3.org/2000/svg"
 width="512.000000pt" height="512.000000pt" viewBox="0 0 512.000000 512.000000"
 preserveAspectRatio="xMidYMid meet">

<g transform="translate(0.000000,512.000000) scale(0.100000,-0.100000)"
fill="#000000" stroke="none">
<path d="M503 4610 c-38 -16 -43 -41 -43 -234 l0 -186 -190 0 c-189 0 -191 0
-215 -25 -33 -32 -33 -78 0 -110 24 -25 26 -25 215 -25 l190 0 0 -1525 0
-1526 25 -24 24 -25 1996 0 1995 0 0 -180 c0 -112 4 -188 11 -204 23 -50 103
-57 134 -13 12 17 15 60 15 209 l0 188 190 0 c189 0 191 0 215 25 16 15 25 36
25 55 0 19 -9 40 -25 55 -24 25 -26 25 -215 25 l-190 0 0 1525 0 1526 -25 24
-24 25 -1996 0 -1995 0 0 180 c0 191 -6 220 -47 239 -28 13 -40 13 -70 1z
m3997 -2050 l0 -1470 -1940 0 -1940 0 0 1470 0 1470 1940 0 1940 0 0 -1470z"/>
<path d="M965 3870 c-15 -16 -32 -101 -77 -383 -61 -382 -62 -404 -17 -427 10
-6 85 -10 168 -10 l151 0 0 -734 0 -733 -45 -17 c-97 -37 -183 -148 -193 -247
-3 -38 0 -51 17 -68 20 -20 29 -21 304 -21 283 0 284 0 305 23 70 74 -48 271
-190 318 l-38 12 0 734 0 733 158 0 c153 0 159 1 180 23 13 14 22 36 22 56 0
41 -96 652 -110 703 -6 21 -19 42 -30 48 -11 6 -129 10 -303 10 -273 0 -285
-1 -302 -20z m529 -372 c20 -128 39 -245 42 -260 l6 -28 -266 0 c-165 0 -266
4 -266 10 0 12 68 445 76 483 l6 27 182 0 183 0 37 -232z m-146 -2085 l37 -17
-52 -4 c-29 -2 -78 -2 -110 0 l-58 3 35 17 c45 22 101 22 148 1z"/>
<path d="M2311 3871 c-11 -11 -23 -35 -26 -53 -3 -18 -5 -242 -3 -496 l3 -464
28 -24 28 -24 735 0 c756 0 761 0 791 39 9 12 12 136 13 502 0 477 0 487 -21
513 l-20 26 -755 0 c-733 0 -755 -1 -773 -19z m1409 -298 l0 -157 -118 117
c-162 160 -140 163 -354 -50 l-168 -167 -84 82 c-127 124 -112 129 -357 -115
l-199 -197 0 322 0 322 640 0 640 0 0 -157z m-128 -250 l128 -128 0 -112 0
-113 -148 0 -147 0 -115 115 -115 115 125 125 c69 69 129 125 135 125 5 0 67
-57 137 -127z m-557 -193 l160 -160 -320 0 -320 0 160 160 c88 88 160 160 160
160 0 0 72 -72 160 -160z"/>
<path d="M2214 2636 c-28 -13 -67 -40 -87 -61 -53 -55 -67 -107 -67 -252 l0
-123 -34 -14 c-19 -8 -52 -33 -74 -56 -70 -71 -72 -86 -72 -495 l0 -362 23
-21 23 -22 1156 0 c1123 0 1156 1 1179 19 l24 19 0 374 c0 412 1 407 -65 482
-18 20 -50 46 -72 57 l-38 19 0 113 c0 177 -34 253 -138 315 l-47 27 -830 3
-830 2 -51 -24z m1698 -165 l33 -29 3 -121 4 -120 -35 -15 c-50 -21 -113 -89
-131 -143 -10 -30 -16 -81 -16 -145 l0 -98 -684 0 -683 0 -5 108 c-3 63 -11
121 -20 143 -21 49 -74 106 -120 130 l-38 19 0 118 c0 126 9 154 54 172 11 5
378 9 813 9 l793 1 32 -29z m-1728 -432 c52 -24 56 -52 56 -363 l0 -286 -100
0 -100 0 0 301 0 301 29 29 c32 31 71 38 115 18z m1890 0 c52 -24 56 -52 56
-363 l0 -286 -100 0 -100 0 0 301 0 301 29 29 c32 31 71 38 115 18z m-304
-524 l0 -125 -685 0 -685 0 0 125 0 125 685 0 685 0 0 -125z"/>
<path d="M2964 4597 c-35 -31 -37 -77 -4 -112 l23 -25 974 0 973 0 0 -390 0
-391 25 -24 c15 -16 36 -25 55 -25 19 0 40 9 55 25 l25 24 0 440 c0 242 -3
447 -6 456 -18 46 1 45 -1078 45 l-1015 0 -27 -23z"/>
<path d="M55 1465 l-25 -24 0 -440 c0 -242 3 -447 6 -456 18 -46 -1 -45 1078
-45 l1015 0 27 23 c35 31 37 77 4 112 l-23 25 -974 0 -973 0 0 390 0 391 -25
24 c-15 16 -36 25 -55 25 -19 0 -40 -9 -55 -25z"/>
</g>
</svg>
